<svg t="1735825381141" class="icon" viewBox="0 0 1024 1024" version="1.1" xmlns="http://www.w3.org/2000/svg" p-id="7763" width="200" height="200">
  <path d="M513.71008 444.20096c100.0448 0 181.1456-81.1008 181.1456-181.1456C694.85568 163.0208 613.75488 81.92 513.71008 81.92c-100.0448 0-181.13536 81.1008-181.13536 181.1456 0 100.03456 81.1008 181.13536 181.1456 181.13536z m0-61.44c-66.0992 0-119.69536-53.59616-119.69536-119.7056 0-66.10944 53.59616-119.69536 119.7056-119.69536 66.0992 0 119.69536 53.58592 119.69536 119.7056 0 66.0992-53.59616 119.69536-119.7056 119.69536zM400.50688 554.16832C292.42368 554.16832 204.8 641.78176 204.8 749.86496v150.4256a30.72 30.72 0 0 1-61.44 0v-150.4256c0-142.00832 115.12832-257.13664 257.14688-257.13664h184.38144a30.72 30.72 0 0 1 0 61.44H400.50688z" fill="#000000" p-id="7764"/>
  <path d="M732.0576 599.4496v150.4256a59.8528 59.8528 0 0 1-59.84256 59.84256H380.90752l24.19712-24.19712a22.64064 22.64064 0 1 0-32.02048-32.02048l-53.38112 53.37088-0.4096-0.39936-32.01024 32.02048 12.83072 12.83072a22.67136 22.67136 0 0 0 7.168 7.168l65.23904 65.24928a22.64064 22.64064 0 0 0 32.02048-32.02048L384 871.15776h288.2048c66.99008 0 121.2928-54.30272 121.2928-121.2928V599.4496a30.72 30.72 0 0 0-61.44 0zM849.92 568.32c-19.0976 0-32.95232 14.27456-32.95232 33.37216v230.66624a30.72 30.72 0 1 0 61.44 0V597.30944c0-16.55808-11.9296-28.98944-28.48768-28.98944z" fill="#000000" p-id="7765"/>
</svg>